<svg width="32" height="32" viewBox="0 0 32 32" fill="none" xmlns="http://www.w3.org/2000/svg">
    <path
        d="M9.59375 10.75C10.0156 10.7656 10.375 10.9219 10.6719 11.2188C10.9688 11.5 11.125 11.8516 11.1406 12.2734V23.7578C11.0469 24.6953 10.5312 25.2031 9.59375 25.2812C9.15625 25.2812 8.77344 25.1406 8.44531 24.8594C8.13281 24.5625 7.97656 24.1953 7.97656 23.7578V12.2734C7.99219 11.8359 8.15625 11.4766 8.46875 11.1953C8.78125 10.8984 9.15625 10.75 9.59375 10.75ZM13.6016 14.875C14.6484 14.1719 16.0625 13.4609 17.8438 12.7422L21.6875 11.1016C21.8594 11.0234 22.0469 10.9766 22.25 10.9609C22.6875 10.9297 23.0625 11.0625 23.375 11.3594C23.6875 11.6406 23.8438 12.0078 23.8438 12.4609C23.8438 12.9766 23.7344 13.3594 23.5156 13.6094C23.3125 13.8438 23.0469 14.0391 22.7188 14.1953L19.4375 15.4375C18.7969 15.6875 18.1875 15.9375 17.6094 16.1875C17.0469 16.4219 16.5312 16.6953 16.0625 17.0078C15.5938 17.2891 15.3438 17.6094 15.3125 17.9688C15.3438 18.3125 15.5938 18.6328 16.0625 18.9297C16.5312 19.2422 17.0469 19.5234 17.6094 19.7734C18.1875 20.0078 18.7969 20.25 19.4375 20.5L23.0938 21.8359C23.4219 21.9922 23.6875 22.1953 23.8906 22.4453C24.1094 22.6797 24.2188 23.0547 24.2188 23.5703C24.2188 24.0234 24.0625 24.3984 23.75 24.6953C23.4375 24.9766 23.0625 25.1016 22.625 25.0703C22.4219 25.0547 22.2344 25.0078 22.0625 24.9297L17.8438 23.1953C16.0625 22.4766 14.6406 21.7656 13.5781 21.0625C12.5312 20.3438 12 19.3125 11.9844 17.9688C12 16.625 12.5391 15.5938 13.6016 14.875Z"
        fill="url(#paint0_linear_156_1113)" />
    <defs>
        <linearGradient id="paint0_linear_156_1113" x1="16" y1="-4.53125" x2="12.853" y2="19.2922"
            gradientUnits="userSpaceOnUse">
            <stop stop-color="#F5F5F5" />
            <stop offset="1" stop-color="#36833A" />
        </linearGradient>
    </defs>
</svg>